<svg xmlns="http://www.w3.org/2000/svg" xmlns:xlink="http://www.w3.org/1999/xlink" version="1.1" xml:space="preserve" class="u-svg-content" viewBox="0 0 512.003 512.003" x="0px" y="0px" id="svg-21f0" style="enable-background:new 0 0 512.003 512.003;"><g><g><path d="M105.189,262.371l-15.184-15.184c-2.929-2.929-7.677-2.929-10.605,0c-2.929,2.929-2.929,7.677,0,10.605l15.184,15.184    c1.464,1.464,3.384,2.197,5.303,2.197c1.919,0,3.839-0.732,5.303-2.197C108.118,270.047,108.118,265.298,105.189,262.371z"></path>
</g>
</g><g><g><path d="M272.977,94.583l-15.184-15.184c-2.929-2.929-7.677-2.929-10.605,0c-2.929,2.929-2.929,7.677,0,10.605l15.184,15.184    c1.464,1.464,3.384,2.197,5.303,2.197c1.919,0,3.839-0.732,5.303-2.197C275.906,102.259,275.906,97.51,272.977,94.583z"></path>
</g>
</g><g><g><path d="M210.913,161.513c-0.279-4.132-3.861-7.255-7.986-6.979c-4.133,0.278-7.257,3.853-6.979,7.985    c0.588,8.752-2.826,17.522-9.365,24.061c-6.54,6.54-15.309,9.955-24.062,9.365c-4.129-0.279-7.707,2.848-7.984,6.979    c-0.278,4.133,2.848,7.707,6.979,7.985c0.984,0.066,1.966,0.099,2.949,0.099c12.059-0.001,23.847-4.947,32.724-13.824    C206.789,187.585,211.791,174.583,210.913,161.513z"></path>
</g>
</g><g><g><path d="M511.988,105.93c-0.983-36.194-53.471-90.21-124.365-92.147c-2.346-1.654-4.76-3.197-7.252-4.584    c-15.388-8.562-46.163-18.516-82.912,7.77c-8.287-4.833-17.332-7.9-27.102-9.144c-41.852-5.326-83.812,24.466-96.489,34.417    c-7.043-2.823-14.317-4.337-22.02-4.337c-22.157,0-45.42,12.943-73.209,40.733c-28.808,28.808-41.732,52.894-40.673,75.801    c0.312,6.753,1.802,13.174,4.298,19.414c-9.92,12.674-39.785,54.812-34.427,96.578c1.25,9.744,4.316,18.767,9.138,27.036    C-4.337,327.27-1.802,353.114,4.358,369.843c2.292,6.224,5.482,12.176,9.426,17.753c1.925,70.908,55.948,123.41,92.146,124.39    c0.365,0.01,0.725,0.015,1.085,0.015c18.073-0.001,29.63-12.453,30.991-33.518c2.331-36.039,11.088-47.295,19.556-58.181    c5.895-7.576,11.974-15.422,15.068-29.795c5.596-8.314,10.153-17.82,13.637-28.453c6.113-2.42,11.735-5.623,16.82-9.629    c12.467-9.824,21.41-24.195,26.654-42.741c30.446-3.001,47.987-23.257,51.801-28.146c4.789-3.743,24.391-20.708,27.972-50.154    c0.066-0.545,0.116-1.093,0.171-1.639c22.677-6.401,38.99-18.258,48.511-35.317c1.459-2.614,2.728-5.341,3.846-8.156    c10.643-3.486,20.157-8.044,28.477-13.643c14.367-3.095,22.21-9.172,29.786-15.066c10.886-8.469,22.142-17.227,58.181-19.556    C499.97,136.617,512.495,124.626,511.988,105.93z M143.012,400.388c-8.505,6.409-18.578,10.75-29.055,12.823    c-1.776,0.351-3.474,0.669-5.282,0.738c-4.087,0.157-7.25,3.755-7.212,7.789c0.04,4.306,4.099,7.818,8.384,7.301    c9.995-1.176,19.873-3.989,28.904-8.447c-7.152,10.871-13.727,26.195-15.714,56.919c-0.318,4.921-1.268,19.903-16.704,19.477    c-14.333-0.388-33.398-12.739-48.572-31.466c-14.063-17.358-23.401-38.126-27.166-59.959c9.099,7.455,19.746,13.46,31.286,17.63    c5.087,1.838,10.305,3.315,15.606,4.393c4.06,0.825,8.018-1.796,8.844-5.855c0.816-4.006-1.843-8.032-5.854-8.848    c-20.512-4.167-40.579-15.363-53.254-32.262c-0.008-0.011-0.018-0.019-0.026-0.03c-16.107-21.528-14.959-48.105-0.797-70.314    c8.898,9.812,20.097,17.101,31.319,23.957c0.094,0.057,0.187,0.115,0.28,0.172c29.049,17.876,62.654,33.132,97.405,33.132    c4.54,0,8.909-0.301,13.113-0.886C162.385,380.932,153.748,392.298,143.012,400.388z M178.238,349.055    c-0.129,0.036-0.26,0.058-0.389,0.101c-28.832,9.622-72.075-1.862-117.146-30.766c-8.937-5.732-18.248-12.112-25.17-20.523    c-0.021-0.025-0.041-0.051-0.062-0.077c-21.761-26.32-12.861-61.804,1.938-89.164c4.425-8.181,9.057-15.147,12.673-20.175    c13.044,19.511,35.621,38.276,63.122,61.114c29.736,24.693,60.311,56.058,100.885,60.093    C207.388,330.036,195.383,343.211,178.238,349.055z M271.851,270.063c-0.676,0.479-1.286,1.091-1.77,1.764    c-10.736,14.914-29.853,23.233-47.972,23.233c-40.109,0-70.713-33.273-99.307-57.02c-30.757-25.545-55.052-45.721-65.043-66.337    c-0.042-0.085-0.095-0.163-0.139-0.247c-16.17-30.385,11.535-62.125,31.623-82.213c21.883-21.884,52.189-47.738,84.701-30.336    c23.819,12.75,40.255,35.289,57.197,55.599c14.796,17.738,31.103,34.854,44.244,53.873c0.074,0.107,0.147,0.214,0.221,0.321    c13.331,19.372,19.857,37.802,19.434,54.971c0,0.018,0.002,0.036,0.002,0.054C294.589,240.909,286.115,259.788,271.851,270.063z     M414.708,97.965c-0.001,31.799-19.269,58.192-48.052,70.551c1.52-10.855,1.089-22.799-1.342-35.767    c-0.762-4.071-4.685-6.752-8.752-5.99c-4.022,0.751-6.757,4.731-6.003,8.755c3.029,16.176,2.563,30.395-1.381,42.265    c-6.157,18.45-21.472,30.348-39.504,36.297c-1.687-17.139-8.803-34.943-21.279-53.24c-0.065-0.096-0.13-0.192-0.196-0.289    c-4.371-6.401-9.167-12.512-14.235-18.375c-8.671-10.034-35.511-42.306-36.817-43.854c-17.423-20.68-32.815-37.622-48.687-48.244    c15.27-10.976,48.52-31.379,80.003-27.373c10.837,1.379,20.631,5.647,29.287,12.733c0.038,0.031,0.076,0.061,0.113,0.091    c9.954,8.143,17.047,19.39,23.712,30.23c8.169,13.286,14.846,26.444,19.939,39.3c0.915,2.31,1.669,4.994,3.878,6.555    c2.008,1.42,4.687,1.765,6.985,0.895c2.906-1.099,4.732-3.808,4.845-6.728c0.07-1.817-0.664-3.419-1.309-5.073    c-7.368-18.907-17.919-38.364-31.401-57.87c-3.174-4.592-6.711-8.947-10.62-12.934c-0.255-0.26-3.44-3.599-3.607-3.494    c21.22-13.47,43.235-14.986,62.791-4.105c24.575,13.675,41.409,44.967,41.633,75.557C414.708,97.894,414.708,97.93,414.708,97.965    z M477.514,123.037c-30.792,1.991-46.116,8.59-56.992,15.761c4.05-8.155,6.801-17.007,8.175-26.379    c4.203-28.657-4.745-59.356-23.145-81.825c21.837,3.764,42.611,13.102,59.972,27.168c18.727,15.174,31.079,34.239,31.466,48.572    C497.41,121.75,482.435,122.719,477.514,123.037z"></path>
</g>
</g></svg>